<?xml version="1.0" encoding="utf-8"?>
<!-- Generator: Adobe Illustrator 19.0.1, SVG Export Plug-In . SVG Version: 6.00 Build 0)  -->
<svg version="1.1" id="Layer_1" xmlns="http://www.w3.org/2000/svg" xmlns:xlink="http://www.w3.org/1999/xlink" x="0px" y="0px"
	 width="120px" height="120px" viewBox="0 0 120 120" enable-background="new 0 0 120 120" xml:space="preserve">
<g id="XMLID_693_">
	<g id="XMLID_1066_">
		<defs>
			<path id="XMLID_579_" d="M-46.7,86.2c-1.2,0-2.4-0.4-3.4-1.3c-2.1-1.9-2.3-5.1-0.5-7.2l11.1-12.7l-11.1-12.7
				c-1.9-2.1-1.7-5.4,0.5-7.2c2.1-1.9,5.4-1.7,7.2,0.5l14.1,16c1.7,1.9,1.7,4.8,0,6.8l-14.1,16C-43.9,85.6-45.3,86.2-46.7,86.2z"/>
		</defs>
		<clipPath id="XMLID_74_">
			<use xlink:href="#XMLID_579_"  overflow="visible"/>
		</clipPath>
		<defs>
			<filter id="Adobe_OpacityMaskFilter" filterUnits="userSpaceOnUse" x="-76.5" y="8.3" width="109.1" height="105.9">
				
					<feColorMatrix  type="matrix" values="-1 0 0 0 1  0 -1 0 0 1  0 0 -1 0 1  0 0 0 1 0" color-interpolation-filters="sRGB" result="source"/>
				<feFlood  style="flood-color:white;flood-opacity:1" result="back"/>
				<feBlend  in="source" in2="back" mode="normal"/>
			</filter>
		</defs>
		<mask maskUnits="userSpaceOnUse" x="-76.5" y="8.3" width="109.1" height="105.9" id="XMLID_75_">
			<g id="XMLID_3531_" filter="url(#Adobe_OpacityMaskFilter)">
				<circle id="XMLID_3825_" clip-path="url(#XMLID_74_)" fill="#FFFFFF" cx="7.3" cy="30.9" r="0.9"/>
				<circle id="XMLID_3824_" clip-path="url(#XMLID_74_)" fill="#FFFFFF" cx="2.5" cy="29.6" r="0.9"/>
				<circle id="XMLID_3812_" clip-path="url(#XMLID_74_)" fill="#FFFFFF" cx="5.5" cy="26.5" r="0.9"/>
				<circle id="XMLID_3811_" clip-path="url(#XMLID_74_)" fill="#FFFFFF" cx="0.7" cy="25.2" r="0.9"/>
				<circle id="XMLID_3810_" clip-path="url(#XMLID_74_)" fill="#FFFFFF" cx="9.3" cy="23.6" r="0.9"/>
				<circle id="XMLID_3809_" clip-path="url(#XMLID_74_)" fill="#FFFFFF" cx="4.5" cy="22.3" r="0.9"/>
				<circle id="XMLID_3808_" clip-path="url(#XMLID_74_)" fill="#FFFFFF" cx="7.5" cy="19.2" r="0.9"/>
				<circle id="XMLID_3807_" clip-path="url(#XMLID_74_)" fill="#FFFFFF" cx="2.7" cy="17.9" r="0.9"/>
				<circle id="XMLID_3806_" clip-path="url(#XMLID_74_)" fill="#FFFFFF" cx="5.3" cy="38.3" r="0.9"/>
				<circle id="XMLID_3805_" clip-path="url(#XMLID_74_)" fill="#FFFFFF" cx="0.5" cy="36.9" r="0.9"/>
				<circle id="XMLID_3804_" clip-path="url(#XMLID_74_)" fill="#FFFFFF" cx="3.5" cy="33.8" r="0.9"/>
				<circle id="XMLID_3802_" clip-path="url(#XMLID_74_)" fill="#FFFFFF" cx="3.3" cy="45.6" r="0.9"/>
				<circle id="XMLID_3800_" clip-path="url(#XMLID_74_)" fill="#FFFFFF" cx="1.6" cy="41.2" r="0.9"/>
				<circle id="XMLID_3798_" clip-path="url(#XMLID_74_)" fill="#FFFFFF" cx="1.3" cy="52.9" r="0.9"/>
				<circle id="XMLID_3796_" clip-path="url(#XMLID_74_)" fill="#FFFFFF" cx="-0.4" cy="48.5" r="0.9"/>
				<circle id="XMLID_3794_" clip-path="url(#XMLID_74_)" fill="#FFFFFF" cx="-0.7" cy="60.2" r="0.9"/>
				<circle id="XMLID_3789_" clip-path="url(#XMLID_74_)" fill="#FFFFFF" cx="13.3" cy="32.6" r="0.9"/>
				<circle id="XMLID_3788_" clip-path="url(#XMLID_74_)" fill="#FFFFFF" cx="11.5" cy="28.1" r="0.9"/>
				<circle id="XMLID_3787_" clip-path="url(#XMLID_74_)" fill="#FFFFFF" cx="15.3" cy="25.2" r="0.9"/>
				<circle id="XMLID_3786_" clip-path="url(#XMLID_74_)" fill="#FFFFFF" cx="13.5" cy="20.8" r="0.9"/>
				<circle id="XMLID_3785_" clip-path="url(#XMLID_74_)" fill="#FFFFFF" cx="11.3" cy="39.9" r="0.9"/>
				<circle id="XMLID_3784_" clip-path="url(#XMLID_74_)" fill="#FFFFFF" cx="9.6" cy="35.5" r="0.9"/>
				<circle id="XMLID_3783_" clip-path="url(#XMLID_74_)" fill="#FFFFFF" cx="9.3" cy="47.2" r="0.9"/>
				<circle id="XMLID_3782_" clip-path="url(#XMLID_74_)" fill="#FFFFFF" cx="7.6" cy="42.8" r="0.9"/>
				<circle id="XMLID_3781_" clip-path="url(#XMLID_74_)" fill="#FFFFFF" cx="7.3" cy="54.5" r="0.9"/>
				<circle id="XMLID_3780_" clip-path="url(#XMLID_74_)" fill="#FFFFFF" cx="5.6" cy="50.1" r="0.9"/>
				<circle id="XMLID_3779_" clip-path="url(#XMLID_74_)" fill="#FFFFFF" cx="5.3" cy="61.9" r="0.9"/>
				<circle id="XMLID_3778_" clip-path="url(#XMLID_74_)" fill="#FFFFFF" cx="3.6" cy="57.5" r="0.9"/>
				<circle id="XMLID_3777_" clip-path="url(#XMLID_74_)" fill="#FFFFFF" cx="1.6" cy="64.8" r="0.9"/>
				<circle id="XMLID_3750_" clip-path="url(#XMLID_74_)" fill="#FFFFFF" cx="3.4" cy="69.1" r="0.9"/>
				<circle id="XMLID_3749_" clip-path="url(#XMLID_74_)" fill="#FFFFFF" cx="-0.4" cy="72" r="0.9"/>
				<circle id="XMLID_3722_" clip-path="url(#XMLID_74_)" fill="#FFFFFF" cx="1.4" cy="76.3" r="0.9"/>
				<circle id="XMLID_3708_" clip-path="url(#XMLID_74_)" fill="#FFFFFF" cx="-0.6" cy="83.5" r="0.9"/>
				<circle id="XMLID_3630_" clip-path="url(#XMLID_74_)" fill="#FFFFFF" cx="19.4" cy="34.2" r="0.9"/>
				<circle id="XMLID_3629_" clip-path="url(#XMLID_74_)" fill="#FFFFFF" cx="17.7" cy="29.8" r="0.9"/>
				<circle id="XMLID_3628_" clip-path="url(#XMLID_74_)" fill="#FFFFFF" cx="21.4" cy="26.9" r="0.9"/>
				<circle id="XMLID_3627_" clip-path="url(#XMLID_74_)" fill="#FFFFFF" cx="17.4" cy="41.6" r="0.9"/>
				<circle id="XMLID_3626_" clip-path="url(#XMLID_74_)" fill="#FFFFFF" cx="15.7" cy="37.1" r="0.9"/>
				<circle id="XMLID_3625_" clip-path="url(#XMLID_74_)" fill="#FFFFFF" cx="15.4" cy="48.9" r="0.9"/>
				<circle id="XMLID_3624_" clip-path="url(#XMLID_74_)" fill="#FFFFFF" cx="13.7" cy="44.5" r="0.9"/>
				<circle id="XMLID_3623_" clip-path="url(#XMLID_74_)" fill="#FFFFFF" cx="13.5" cy="56.2" r="0.9"/>
				<circle id="XMLID_3622_" clip-path="url(#XMLID_74_)" fill="#FFFFFF" cx="11.7" cy="51.8" r="0.9"/>
				<circle id="XMLID_3621_" clip-path="url(#XMLID_74_)" fill="#FFFFFF" cx="11.5" cy="63.5" r="0.9"/>
				<circle id="XMLID_3620_" clip-path="url(#XMLID_74_)" fill="#FFFFFF" cx="9.7" cy="59.1" r="0.9"/>
				<circle id="XMLID_3619_" clip-path="url(#XMLID_74_)" fill="#FFFFFF" cx="7.7" cy="66.5" r="0.9"/>
				<circle id="XMLID_3618_" clip-path="url(#XMLID_74_)" fill="#FFFFFF" cx="30.3" cy="37.2" r="0.9"/>
				<circle id="XMLID_3617_" clip-path="url(#XMLID_74_)" fill="#FFFFFF" cx="25.4" cy="35.9" r="0.9"/>
				<circle id="XMLID_3616_" clip-path="url(#XMLID_74_)" fill="#FFFFFF" cx="28.5" cy="32.8" r="0.9"/>
				<circle id="XMLID_3615_" clip-path="url(#XMLID_74_)" fill="#FFFFFF" cx="23.7" cy="31.4" r="0.9"/>
				<circle id="XMLID_3614_" clip-path="url(#XMLID_74_)" fill="#FFFFFF" cx="32.2" cy="29.8" r="0.9"/>
				<circle id="XMLID_3613_" clip-path="url(#XMLID_74_)" fill="#FFFFFF" cx="27.4" cy="28.5" r="0.9"/>
				<circle id="XMLID_3612_" clip-path="url(#XMLID_74_)" fill="#FFFFFF" cx="28.3" cy="44.5" r="0.9"/>
				<circle id="XMLID_3611_" clip-path="url(#XMLID_74_)" fill="#FFFFFF" cx="23.4" cy="43.2" r="0.9"/>
				<circle id="XMLID_3610_" clip-path="url(#XMLID_74_)" fill="#FFFFFF" cx="26.5" cy="40.1" r="0.9"/>
				<circle id="XMLID_3609_" clip-path="url(#XMLID_74_)" fill="#FFFFFF" cx="21.7" cy="38.8" r="0.9"/>
				<circle id="XMLID_3608_" clip-path="url(#XMLID_74_)" fill="#FFFFFF" cx="26.3" cy="51.8" r="0.9"/>
				<circle id="XMLID_3607_" clip-path="url(#XMLID_74_)" fill="#FFFFFF" cx="21.4" cy="50.5" r="0.9"/>
				<circle id="XMLID_3606_" clip-path="url(#XMLID_74_)" fill="#FFFFFF" cx="24.5" cy="47.4" r="0.9"/>
				<circle id="XMLID_3605_" clip-path="url(#XMLID_74_)" fill="#FFFFFF" cx="19.7" cy="46.1" r="0.9"/>
				<circle id="XMLID_3604_" clip-path="url(#XMLID_74_)" fill="#FFFFFF" cx="24.3" cy="59.2" r="0.9"/>
				<circle id="XMLID_3603_" clip-path="url(#XMLID_74_)" fill="#FFFFFF" cx="19.4" cy="57.8" r="0.9"/>
				<circle id="XMLID_3602_" clip-path="url(#XMLID_74_)" fill="#FFFFFF" cx="22.5" cy="54.7" r="0.9"/>
				<circle id="XMLID_3601_" clip-path="url(#XMLID_74_)" fill="#FFFFFF" cx="17.7" cy="53.4" r="0.9"/>
				<circle id="XMLID_3600_" clip-path="url(#XMLID_74_)" fill="#FFFFFF" cx="22.3" cy="66.5" r="0.9"/>
				<circle id="XMLID_3599_" clip-path="url(#XMLID_74_)" fill="#FFFFFF" cx="17.4" cy="65.2" r="0.9"/>
				<circle id="XMLID_3598_" clip-path="url(#XMLID_74_)" fill="#FFFFFF" cx="20.5" cy="62.1" r="0.9"/>
				<circle id="XMLID_3597_" clip-path="url(#XMLID_74_)" fill="#FFFFFF" cx="15.7" cy="60.8" r="0.9"/>
				<circle id="XMLID_3596_" clip-path="url(#XMLID_74_)" fill="#FFFFFF" cx="18.5" cy="69.4" r="0.9"/>
				<circle id="XMLID_3595_" clip-path="url(#XMLID_74_)" fill="#FFFFFF" cx="36.3" cy="38.8" r="0.9"/>
				<circle id="XMLID_3594_" clip-path="url(#XMLID_74_)" fill="#FFFFFF" cx="34.5" cy="34.4" r="0.9"/>
				<circle id="XMLID_3593_" clip-path="url(#XMLID_74_)" fill="#FFFFFF" cx="38.3" cy="31.5" r="0.9"/>
				<circle id="XMLID_3592_" clip-path="url(#XMLID_74_)" fill="#FFFFFF" cx="34.3" cy="46.1" r="0.9"/>
				<circle id="XMLID_3591_" clip-path="url(#XMLID_74_)" fill="#FFFFFF" cx="32.5" cy="41.7" r="0.9"/>
				<circle id="XMLID_3590_" clip-path="url(#XMLID_74_)" fill="#FFFFFF" cx="32.3" cy="53.5" r="0.9"/>
				<circle id="XMLID_3589_" clip-path="url(#XMLID_74_)" fill="#FFFFFF" cx="30.5" cy="49" r="0.9"/>
				<circle id="XMLID_3588_" clip-path="url(#XMLID_74_)" fill="#FFFFFF" cx="30.3" cy="60.8" r="0.9"/>
				<circle id="XMLID_3587_" clip-path="url(#XMLID_74_)" fill="#FFFFFF" cx="28.5" cy="56.4" r="0.9"/>
				<circle id="XMLID_3586_" clip-path="url(#XMLID_74_)" fill="#FFFFFF" cx="28.3" cy="68.1" r="0.9"/>
				<circle id="XMLID_3585_" clip-path="url(#XMLID_74_)" fill="#FFFFFF" cx="26.5" cy="63.7" r="0.9"/>
				<circle id="XMLID_3584_" clip-path="url(#XMLID_74_)" fill="#FFFFFF" cx="24.5" cy="71" r="0.9"/>
				<circle id="XMLID_3583_" clip-path="url(#XMLID_74_)" fill="#FFFFFF" cx="13.7" cy="68.1" r="0.9"/>
				<circle id="XMLID_3582_" clip-path="url(#XMLID_74_)" fill="#FFFFFF" cx="9.5" cy="70.8" r="0.9"/>
				<circle id="XMLID_3581_" clip-path="url(#XMLID_74_)" fill="#FFFFFF" cx="5.8" cy="73.7" r="0.9"/>
				<circle id="XMLID_3580_" clip-path="url(#XMLID_74_)" fill="#FFFFFF" cx="20.3" cy="73.7" r="0.9"/>
				<circle id="XMLID_3579_" clip-path="url(#XMLID_74_)" fill="#FFFFFF" cx="15.5" cy="72.4" r="0.9"/>
				<circle id="XMLID_3578_" clip-path="url(#XMLID_74_)" fill="#FFFFFF" cx="16.6" cy="76.6" r="0.9"/>
				<circle id="XMLID_3577_" clip-path="url(#XMLID_74_)" fill="#FFFFFF" cx="26.3" cy="75.3" r="0.9"/>
				<circle id="XMLID_3576_" clip-path="url(#XMLID_74_)" fill="#FFFFFF" cx="22.6" cy="78.2" r="0.9"/>
				<circle id="XMLID_3575_" clip-path="url(#XMLID_74_)" fill="#FFFFFF" cx="11.7" cy="75.3" r="0.9"/>
				<circle id="XMLID_3574_" clip-path="url(#XMLID_74_)" fill="#FFFFFF" cx="7.5" cy="78" r="0.9"/>
				<circle id="XMLID_3573_" clip-path="url(#XMLID_74_)" fill="#FFFFFF" cx="3.8" cy="80.9" r="0.9"/>
				<circle id="XMLID_3572_" clip-path="url(#XMLID_74_)" fill="#FFFFFF" cx="18.4" cy="80.9" r="0.9"/>
				<circle id="XMLID_3565_" clip-path="url(#XMLID_74_)" fill="#FFFFFF" cx="13.5" cy="79.6" r="0.9"/>
				<circle id="XMLID_3564_" clip-path="url(#XMLID_74_)" fill="#FFFFFF" cx="14.6" cy="83.8" r="0.9"/>
				<circle id="XMLID_3563_" clip-path="url(#XMLID_74_)" fill="#FFFFFF" cx="24.4" cy="82.5" r="0.9"/>
				<circle id="XMLID_3562_" clip-path="url(#XMLID_74_)" fill="#FFFFFF" cx="5.6" cy="85.2" r="0.9"/>
				<circle id="XMLID_3561_" clip-path="url(#XMLID_74_)" fill="#FFFFFF" cx="16.4" cy="88.1" r="0.9"/>
				<circle id="XMLID_3560_" clip-path="url(#XMLID_74_)" fill="#FFFFFF" cx="11.6" cy="86.8" r="0.9"/>
				<circle id="XMLID_3559_" clip-path="url(#XMLID_74_)" fill="#FFFFFF" cx="22.4" cy="89.8" r="0.9"/>
				<circle id="XMLID_3558_" clip-path="url(#XMLID_74_)" fill="#FFFFFF" cx="20.6" cy="85.5" r="0.9"/>
				<circle id="XMLID_3557_" clip-path="url(#XMLID_74_)" fill="#FFFFFF" cx="9.8" cy="82.5" r="0.9"/>
				<circle id="XMLID_3556_" clip-path="url(#XMLID_74_)" fill="#FFFFFF" cx="1.8" cy="88.2" r="0.9"/>
				<circle id="XMLID_3555_" clip-path="url(#XMLID_74_)" fill="#FFFFFF" cx="12.6" cy="91.1" r="0.9"/>
				<circle id="XMLID_3554_" clip-path="url(#XMLID_74_)" fill="#FFFFFF" cx="18.6" cy="92.8" r="0.9"/>
				<circle id="XMLID_3553_" clip-path="url(#XMLID_74_)" fill="#FFFFFF" cx="7.8" cy="89.8" r="0.9"/>
				<circle id="XMLID_3552_" clip-path="url(#XMLID_74_)" fill="#FFFFFF" cx="3.6" cy="92.5" r="0.9"/>
				<circle id="XMLID_3551_" clip-path="url(#XMLID_74_)" fill="#FFFFFF" cx="-0.2" cy="95.4" r="0.9"/>
				<circle id="XMLID_3550_" clip-path="url(#XMLID_74_)" fill="#FFFFFF" cx="14.4" cy="95.4" r="0.9"/>
				<circle id="XMLID_3549_" clip-path="url(#XMLID_74_)" fill="#FFFFFF" cx="9.6" cy="94.1" r="0.9"/>
				<circle id="XMLID_3548_" clip-path="url(#XMLID_74_)" fill="#FFFFFF" cx="10.7" cy="98.4" r="0.9"/>
				<circle id="XMLID_3547_" clip-path="url(#XMLID_74_)" fill="#FFFFFF" cx="20.4" cy="97.1" r="0.9"/>
				<circle id="XMLID_3546_" clip-path="url(#XMLID_74_)" fill="#FFFFFF" cx="16.7" cy="100" r="0.9"/>
				<circle id="XMLID_3545_" clip-path="url(#XMLID_74_)" fill="#FFFFFF" cx="5.8" cy="97" r="0.9"/>
				<circle id="XMLID_3544_" clip-path="url(#XMLID_74_)" fill="#FFFFFF" cx="1.6" cy="99.7" r="0.9"/>
				<circle id="XMLID_3542_" clip-path="url(#XMLID_74_)" fill="#FFFFFF" cx="12.4" cy="102.6" r="0.9"/>
				<circle id="XMLID_3541_" clip-path="url(#XMLID_74_)" fill="#FFFFFF" cx="7.6" cy="101.3" r="0.9"/>
				<circle id="XMLID_3540_" clip-path="url(#XMLID_74_)" fill="#FFFFFF" cx="8.7" cy="105.6" r="0.9"/>
				<circle id="XMLID_3539_" clip-path="url(#XMLID_74_)" fill="#FFFFFF" cx="18.5" cy="104.3" r="0.9"/>
				<circle id="XMLID_3538_" clip-path="url(#XMLID_74_)" fill="#FFFFFF" cx="-0.3" cy="106.9" r="0.9"/>
				<circle id="XMLID_3537_" clip-path="url(#XMLID_74_)" fill="#FFFFFF" cx="10.5" cy="109.9" r="0.9"/>
				<circle id="XMLID_3536_" clip-path="url(#XMLID_74_)" fill="#FFFFFF" cx="5.7" cy="108.5" r="0.9"/>
				<circle id="XMLID_3535_" clip-path="url(#XMLID_74_)" fill="#FFFFFF" cx="16.5" cy="111.5" r="0.9"/>
				<circle id="XMLID_3534_" clip-path="url(#XMLID_74_)" fill="#FFFFFF" cx="14.7" cy="107.2" r="0.9"/>
				<circle id="XMLID_3533_" clip-path="url(#XMLID_74_)" fill="#FFFFFF" cx="3.9" cy="104.3" r="0.9"/>
			</g>
		</mask>
		<polygon id="XMLID_3070_" clip-path="url(#XMLID_74_)" mask="url(#XMLID_75_)" fill="#A47DB7" points="-76.5,82.5 -37.2,29.7 
			1.9,8.3 19.2,15.3 29.5,24.5 32.6,33.7 -0.7,114.2 		"/>
	</g>
</g>
<g id="XMLID_1064_">
	<circle id="XMLID_5367_" fill="#F6D4C1" cx="59.8" cy="59.8" r="59.1"/>
	<defs>
		<filter id="Adobe_OpacityMaskFilter_1_" filterUnits="userSpaceOnUse" x="29.3" y="30.9" width="72.3" height="64.1">
			
				<feColorMatrix  type="matrix" values="-1 0 0 0 1  0 -1 0 0 1  0 0 -1 0 1  0 0 0 1 0" color-interpolation-filters="sRGB" result="source"/>
			<feFlood  style="flood-color:white;flood-opacity:1" result="back"/>
			<feBlend  in="source" in2="back" mode="normal"/>
		</filter>
	</defs>
	<mask maskUnits="userSpaceOnUse" x="29.3" y="30.9" width="72.3" height="64.1" id="XMLID_76_">
		<g id="XMLID_19_" filter="url(#Adobe_OpacityMaskFilter_1_)">
			<circle id="XMLID_2810_" fill="#C0D96E" cx="11.7" cy="21.8" r="0.9"/>
			<circle id="XMLID_2809_" fill="#FFFFFF" cx="22.3" cy="34.8" r="0.9"/>
			<circle id="XMLID_2808_" fill="#FFFFFF" cx="27.2" cy="34.8" r="0.9"/>
			<circle id="XMLID_2807_" fill="#FFFFFF" cx="37" cy="34.8" r="0.9"/>
			<circle id="XMLID_2806_" fill="#FFFFFF" cx="46.7" cy="34.8" r="0.9"/>
			<circle id="XMLID_2805_" fill="#FFFFFF" cx="41.8" cy="34.8" r="0.9"/>
			<circle id="XMLID_2804_" fill="#FFFFFF" cx="51.6" cy="34.8" r="0.9"/>
			<circle id="XMLID_2803_" fill="#FFFFFF" cx="66.2" cy="34.8" r="0.9"/>
			<circle id="XMLID_2802_" fill="#FFFFFF" cx="17.4" cy="34.8" r="0.9"/>
			<circle id="XMLID_2801_" fill="#FFFFFF" cx="56.5" cy="34.8" r="0.9"/>
			<circle id="XMLID_2800_" fill="#FFFFFF" cx="61.3" cy="34.8" r="0.9"/>
			<circle id="XMLID_2799_" fill="#FFFFFF" cx="32.1" cy="34.8" r="0.9"/>
			<circle id="XMLID_2798_" fill="#FFFFFF" cx="19.6" cy="31.1" r="0.9"/>
			<circle id="XMLID_2797_" fill="#FFFFFF" cx="24.4" cy="31.1" r="0.9"/>
			<circle id="XMLID_2796_" fill="#FFFFFF" cx="34.2" cy="31.1" r="0.9"/>
			<circle id="XMLID_2795_" fill="#FFFFFF" cx="43.9" cy="31.1" r="0.9"/>
			<circle id="XMLID_2794_" fill="#FFFFFF" cx="39.1" cy="31.1" r="0.9"/>
			<circle id="XMLID_2793_" fill="#FFFFFF" cx="48.8" cy="31.1" r="0.9"/>
			<circle id="XMLID_2792_" fill="#FFFFFF" cx="63.4" cy="31.1" r="0.9"/>
			<circle id="XMLID_2791_" fill="#FFFFFF" cx="53.7" cy="31.1" r="0.9"/>
			<circle id="XMLID_2790_" fill="#FFFFFF" cx="58.6" cy="31.1" r="0.9"/>
			<circle id="XMLID_2789_" fill="#FFFFFF" cx="29.3" cy="31.1" r="0.9"/>
			<circle id="XMLID_2788_" fill="#FFFFFF" cx="22.3" cy="27.4" r="0.9"/>
			<circle id="XMLID_2787_" fill="#FFFFFF" cx="27.2" cy="27.4" r="0.9"/>
			<circle id="XMLID_2786_" fill="#FFFFFF" cx="37" cy="27.4" r="0.9"/>
			<circle id="XMLID_2785_" fill="#FFFFFF" cx="46.7" cy="27.4" r="0.9"/>
			<circle id="XMLID_2784_" fill="#FFFFFF" cx="41.8" cy="27.4" r="0.9"/>
			<circle id="XMLID_2783_" fill="#FFFFFF" cx="51.6" cy="27.4" r="0.9"/>
			<circle id="XMLID_2782_" fill="#FFFFFF" cx="66.2" cy="27.4" r="0.9"/>
			<circle id="XMLID_2781_" fill="#FFFFFF" cx="17.4" cy="27.4" r="0.9"/>
			<circle id="XMLID_2780_" fill="#FFFFFF" cx="56.5" cy="27.4" r="0.9"/>
			<circle id="XMLID_2779_" fill="#FFFFFF" cx="61.3" cy="27.4" r="0.9"/>
			<circle id="XMLID_2778_" fill="#FFFFFF" cx="32.1" cy="27.4" r="0.9"/>
			<circle id="XMLID_2777_" fill="#FFFFFF" cx="19.6" cy="23.7" r="0.9"/>
			<circle id="XMLID_2776_" fill="#FFFFFF" cx="24.4" cy="23.7" r="0.9"/>
			<circle id="XMLID_2775_" fill="#FFFFFF" cx="34.2" cy="23.7" r="0.9"/>
			<circle id="XMLID_2774_" fill="#FFFFFF" cx="43.9" cy="23.7" r="0.9"/>
			<circle id="XMLID_2773_" fill="#FFFFFF" cx="39.1" cy="23.7" r="0.9"/>
			<circle id="XMLID_2772_" fill="#FFFFFF" cx="48.8" cy="23.7" r="0.9"/>
			<circle id="XMLID_2771_" fill="#FFFFFF" cx="63.4" cy="23.7" r="0.9"/>
			<circle id="XMLID_2770_" fill="#FFFFFF" cx="53.7" cy="23.7" r="0.9"/>
			<circle id="XMLID_2769_" fill="#FFFFFF" cx="58.6" cy="23.7" r="0.9"/>
			<circle id="XMLID_2768_" fill="#FFFFFF" cx="29.3" cy="23.7" r="0.9"/>
			<circle id="XMLID_2767_" fill="#FFFFFF" cx="22.3" cy="42.2" r="0.9"/>
			<circle id="XMLID_2766_" fill="#FFFFFF" cx="27.2" cy="42.2" r="0.9"/>
			<circle id="XMLID_2765_" fill="#FFFFFF" cx="37" cy="42.2" r="0.9"/>
			<circle id="XMLID_2764_" fill="#FFFFFF" cx="46.7" cy="42.2" r="0.9"/>
			<circle id="XMLID_2763_" fill="#FFFFFF" cx="41.8" cy="42.2" r="0.9"/>
			<circle id="XMLID_2762_" fill="#FFFFFF" cx="51.6" cy="42.2" r="0.9"/>
			<circle id="XMLID_2761_" fill="#FFFFFF" cx="66.2" cy="42.2" r="0.9"/>
			<circle id="XMLID_2760_" fill="#FFFFFF" cx="17.4" cy="42.2" r="0.9"/>
			<circle id="XMLID_2759_" fill="#FFFFFF" cx="56.5" cy="42.2" r="0.9"/>
			<circle id="XMLID_2758_" fill="#FFFFFF" cx="61.3" cy="42.2" r="0.9"/>
			<circle id="XMLID_2757_" fill="#FFFFFF" cx="32.1" cy="42.2" r="0.9"/>
			<circle id="XMLID_2756_" fill="#FFFFFF" cx="19.6" cy="38.5" r="0.9"/>
			<circle id="XMLID_2755_" fill="#FFFFFF" cx="24.4" cy="38.5" r="0.9"/>
			<circle id="XMLID_2754_" fill="#FFFFFF" cx="34.2" cy="38.5" r="0.9"/>
			<circle id="XMLID_2753_" fill="#FFFFFF" cx="43.9" cy="38.5" r="0.9"/>
			<circle id="XMLID_2752_" fill="#FFFFFF" cx="39.1" cy="38.5" r="0.9"/>
			<circle id="XMLID_2751_" fill="#FFFFFF" cx="48.8" cy="38.5" r="0.9"/>
			<circle id="XMLID_2750_" fill="#FFFFFF" cx="63.4" cy="38.5" r="0.9"/>
			<circle id="XMLID_2749_" fill="#FFFFFF" cx="14.7" cy="38.5" r="0.9"/>
			<circle id="XMLID_2748_" fill="#FFFFFF" cx="53.7" cy="38.5" r="0.9"/>
			<circle id="XMLID_2747_" fill="#FFFFFF" cx="58.6" cy="38.5" r="0.9"/>
			<circle id="XMLID_2746_" fill="#FFFFFF" cx="29.3" cy="38.5" r="0.9"/>
			<circle id="XMLID_2745_" fill="#C0D96E" cx="11.7" cy="36.6" r="0.9"/>
			<circle id="XMLID_2744_" fill="#FFFFFF" cx="22.3" cy="49.5" r="0.9"/>
			<circle id="XMLID_2743_" fill="#FFFFFF" cx="27.2" cy="49.5" r="0.9"/>
			<circle id="XMLID_2742_" fill="#FFFFFF" cx="37" cy="49.5" r="0.9"/>
			<circle id="XMLID_2741_" fill="#FFFFFF" cx="46.7" cy="49.5" r="0.9"/>
			<circle id="XMLID_2740_" fill="#FFFFFF" cx="41.8" cy="49.5" r="0.9"/>
			<circle id="XMLID_2739_" fill="#FFFFFF" cx="51.6" cy="49.5" r="0.9"/>
			<circle id="XMLID_2738_" fill="#FFFFFF" cx="66.2" cy="49.5" r="0.9"/>
			<circle id="XMLID_2737_" fill="#FFFFFF" cx="17.4" cy="49.5" r="0.9"/>
			<circle id="XMLID_2736_" fill="#FFFFFF" cx="56.5" cy="49.5" r="0.9"/>
			<circle id="XMLID_2735_" fill="#FFFFFF" cx="61.3" cy="49.5" r="0.9"/>
			<circle id="XMLID_2734_" fill="#FFFFFF" cx="32.1" cy="49.5" r="0.9"/>
			<circle id="XMLID_2733_" fill="#FFFFFF" cx="19.6" cy="45.9" r="0.9"/>
			<circle id="XMLID_2732_" fill="#FFFFFF" cx="24.4" cy="45.9" r="0.9"/>
			<circle id="XMLID_2731_" fill="#FFFFFF" cx="34.2" cy="45.9" r="0.9"/>
			<circle id="XMLID_2730_" fill="#FFFFFF" cx="43.9" cy="45.9" r="0.9"/>
			<circle id="XMLID_2729_" fill="#FFFFFF" cx="39.1" cy="45.9" r="0.9"/>
			<circle id="XMLID_2728_" fill="#FFFFFF" cx="48.8" cy="45.9" r="0.9"/>
			<circle id="XMLID_2727_" fill="#FFFFFF" cx="63.4" cy="45.9" r="0.9"/>
			<circle id="XMLID_2726_" fill="#FFFFFF" cx="53.7" cy="45.9" r="0.9"/>
			<circle id="XMLID_2725_" fill="#FFFFFF" cx="58.6" cy="45.9" r="0.9"/>
			<circle id="XMLID_2724_" fill="#FFFFFF" cx="29.3" cy="45.9" r="0.9"/>
			<circle id="XMLID_2723_" fill="#FFFFFF" cx="22.3" cy="56.9" r="0.9"/>
			<circle id="XMLID_2722_" fill="#FFFFFF" cx="27.2" cy="56.9" r="0.9"/>
			<circle id="XMLID_2721_" fill="#FFFFFF" cx="37" cy="56.9" r="0.9"/>
			<circle id="XMLID_2720_" fill="#FFFFFF" cx="46.7" cy="56.9" r="0.9"/>
			<circle id="XMLID_2719_" fill="#FFFFFF" cx="41.8" cy="56.9" r="0.9"/>
			<circle id="XMLID_2718_" fill="#FFFFFF" cx="51.6" cy="56.9" r="0.9"/>
			<circle id="XMLID_2717_" fill="#FFFFFF" cx="66.2" cy="56.9" r="0.9"/>
			<circle id="XMLID_2716_" fill="#FFFFFF" cx="17.4" cy="56.9" r="0.9"/>
			<circle id="XMLID_2715_" fill="#FFFFFF" cx="56.5" cy="56.9" r="0.9"/>
			<circle id="XMLID_2714_" fill="#FFFFFF" cx="61.3" cy="56.9" r="0.9"/>
			<circle id="XMLID_2713_" fill="#FFFFFF" cx="32.1" cy="56.9" r="0.9"/>
			<circle id="XMLID_2712_" fill="#FFFFFF" cx="19.6" cy="53.2" r="0.9"/>
			<circle id="XMLID_2711_" fill="#FFFFFF" cx="24.4" cy="53.2" r="0.9"/>
			<circle id="XMLID_2710_" fill="#FFFFFF" cx="34.2" cy="53.2" r="0.9"/>
			<circle id="XMLID_2709_" fill="#FFFFFF" cx="43.9" cy="53.2" r="0.9"/>
			<circle id="XMLID_2708_" fill="#FFFFFF" cx="39.1" cy="53.2" r="0.9"/>
			<circle id="XMLID_2707_" fill="#FFFFFF" cx="48.8" cy="53.2" r="0.9"/>
			<circle id="XMLID_2706_" fill="#FFFFFF" cx="63.4" cy="53.2" r="0.9"/>
			<circle id="XMLID_2705_" fill="#FFFFFF" cx="14.7" cy="53.2" r="0.9"/>
			<circle id="XMLID_2704_" fill="#FFFFFF" cx="53.7" cy="53.2" r="0.9"/>
			<circle id="XMLID_2703_" fill="#FFFFFF" cx="58.6" cy="53.2" r="0.9"/>
			<circle id="XMLID_2702_" fill="#FFFFFF" cx="29.3" cy="53.2" r="0.9"/>
			<circle id="XMLID_2701_" fill="#FFFFFF" cx="22.3" cy="64.3" r="0.9"/>
			<circle id="XMLID_2700_" fill="#FFFFFF" cx="27.2" cy="64.3" r="0.9"/>
			<circle id="XMLID_2699_" fill="#FFFFFF" cx="37" cy="64.3" r="0.9"/>
			<circle id="XMLID_2698_" fill="#FFFFFF" cx="46.7" cy="64.3" r="0.9"/>
			<circle id="XMLID_2697_" fill="#FFFFFF" cx="41.8" cy="64.3" r="0.9"/>
			<circle id="XMLID_2696_" fill="#FFFFFF" cx="51.6" cy="64.3" r="0.9"/>
			<circle id="XMLID_2695_" fill="#FFFFFF" cx="66.2" cy="64.3" r="0.9"/>
			<circle id="XMLID_2694_" fill="#FFFFFF" cx="17.4" cy="64.3" r="0.9"/>
			<circle id="XMLID_2693_" fill="#FFFFFF" cx="56.5" cy="64.3" r="0.9"/>
			<circle id="XMLID_2692_" fill="#FFFFFF" cx="61.3" cy="64.3" r="0.9"/>
			<circle id="XMLID_2691_" fill="#FFFFFF" cx="32.1" cy="64.3" r="0.9"/>
			<circle id="XMLID_2690_" fill="#FFFFFF" cx="19.6" cy="60.6" r="0.9"/>
			<circle id="XMLID_2689_" fill="#FFFFFF" cx="24.4" cy="60.6" r="0.9"/>
			<circle id="XMLID_2688_" fill="#FFFFFF" cx="34.2" cy="60.6" r="0.9"/>
			<circle id="XMLID_2687_" fill="#FFFFFF" cx="43.9" cy="60.6" r="0.9"/>
			<circle id="XMLID_2686_" fill="#FFFFFF" cx="39.1" cy="60.6" r="0.9"/>
			<circle id="XMLID_2685_" fill="#FFFFFF" cx="48.8" cy="60.6" r="0.9"/>
			<circle id="XMLID_2684_" fill="#FFFFFF" cx="63.4" cy="60.6" r="0.9"/>
			<circle id="XMLID_2683_" fill="#FFFFFF" cx="53.7" cy="60.6" r="0.9"/>
			<circle id="XMLID_2682_" fill="#FFFFFF" cx="58.6" cy="60.6" r="0.9"/>
			<circle id="XMLID_2681_" fill="#FFFFFF" cx="29.3" cy="60.6" r="0.9"/>
			<circle id="XMLID_2680_" fill="#FFFFFF" cx="19.6" cy="68" r="0.9"/>
			<circle id="XMLID_2679_" fill="#FFFFFF" cx="24.4" cy="68" r="0.9"/>
			<circle id="XMLID_2678_" fill="#FFFFFF" cx="34.2" cy="68" r="0.9"/>
			<circle id="XMLID_2677_" fill="#FFFFFF" cx="43.9" cy="68" r="0.9"/>
			<circle id="XMLID_2676_" fill="#FFFFFF" cx="39.1" cy="68" r="0.9"/>
			<circle id="XMLID_2675_" fill="#FFFFFF" cx="48.8" cy="68" r="0.9"/>
			<circle id="XMLID_2674_" fill="#FFFFFF" cx="63.4" cy="68" r="0.9"/>
			<circle id="XMLID_2673_" fill="#FFFFFF" cx="14.7" cy="68" r="0.9"/>
			<circle id="XMLID_2672_" fill="#FFFFFF" cx="53.7" cy="68" r="0.9"/>
			<circle id="XMLID_2671_" fill="#FFFFFF" cx="58.6" cy="68" r="0.9"/>
			<circle id="XMLID_2670_" fill="#FFFFFF" cx="77.1" cy="34.8" r="0.9"/>
			<circle id="XMLID_2669_" fill="#FFFFFF" cx="72.3" cy="34.8" r="0.9"/>
			<circle id="XMLID_2668_" fill="#FFFFFF" cx="74.4" cy="31.1" r="0.9"/>
			<circle id="XMLID_2667_" fill="#FFFFFF" cx="69.5" cy="31.1" r="0.9"/>
			<circle id="XMLID_2666_" fill="#FFFFFF" cx="77.1" cy="27.4" r="0.9"/>
			<circle id="XMLID_2665_" fill="#FFFFFF" cx="72.3" cy="27.4" r="0.9"/>
			<circle id="XMLID_2664_" fill="#FFFFFF" cx="74.4" cy="23.7" r="0.9"/>
			<circle id="XMLID_2663_" fill="#FFFFFF" cx="69.5" cy="23.7" r="0.9"/>
			<circle id="XMLID_2662_" fill="#FFFFFF" cx="77.1" cy="42.2" r="0.9"/>
			<circle id="XMLID_2661_" fill="#FFFFFF" cx="72.3" cy="42.2" r="0.9"/>
			<circle id="XMLID_2660_" fill="#FFFFFF" cx="74.4" cy="38.5" r="0.9"/>
			<circle id="XMLID_2659_" fill="#FFFFFF" cx="69.5" cy="38.5" r="0.9"/>
			<circle id="XMLID_2658_" fill="#FFFFFF" cx="77.1" cy="49.5" r="0.9"/>
			<circle id="XMLID_2657_" fill="#FFFFFF" cx="72.3" cy="49.5" r="0.9"/>
			<circle id="XMLID_2656_" fill="#FFFFFF" cx="74.4" cy="45.9" r="0.9"/>
			<circle id="XMLID_2655_" fill="#FFFFFF" cx="69.5" cy="45.9" r="0.9"/>
			<circle id="XMLID_2654_" fill="#FFFFFF" cx="77.1" cy="56.9" r="0.9"/>
			<circle id="XMLID_2653_" fill="#FFFFFF" cx="72.3" cy="56.9" r="0.9"/>
			<circle id="XMLID_2652_" fill="#FFFFFF" cx="74.4" cy="53.2" r="0.9"/>
			<circle id="XMLID_2651_" fill="#FFFFFF" cx="69.5" cy="53.2" r="0.9"/>
			<circle id="XMLID_2650_" fill="#FFFFFF" cx="77.1" cy="64.3" r="0.9"/>
			<circle id="XMLID_2649_" fill="#FFFFFF" cx="72.3" cy="64.3" r="0.9"/>
			<circle id="XMLID_2648_" fill="#FFFFFF" cx="74.4" cy="60.6" r="0.9"/>
			<circle id="XMLID_2647_" fill="#FFFFFF" cx="69.5" cy="60.6" r="0.9"/>
			<circle id="XMLID_2646_" fill="#FFFFFF" cx="74.4" cy="68" r="0.9"/>
			<circle id="XMLID_2645_" fill="#FFFFFF" cx="83.2" cy="34.8" r="0.9"/>
			<circle id="XMLID_2644_" fill="#FFFFFF" cx="80.4" cy="31.1" r="0.9"/>
			<circle id="XMLID_2643_" fill="#FFFFFF" cx="83.2" cy="27.4" r="0.9"/>
			<circle id="XMLID_2642_" fill="#FFFFFF" cx="80.4" cy="23.7" r="0.9"/>
			<circle id="XMLID_2641_" fill="#FFFFFF" cx="83.2" cy="42.2" r="0.9"/>
			<circle id="XMLID_2640_" fill="#FFFFFF" cx="80.4" cy="38.5" r="0.9"/>
			<circle id="XMLID_2639_" fill="#FFFFFF" cx="83.2" cy="49.5" r="0.9"/>
			<circle id="XMLID_2638_" fill="#FFFFFF" cx="80.4" cy="45.9" r="0.9"/>
			<circle id="XMLID_2637_" fill="#FFFFFF" cx="83.2" cy="56.9" r="0.9"/>
			<circle id="XMLID_2636_" fill="#FFFFFF" cx="80.4" cy="53.2" r="0.9"/>
			<circle id="XMLID_2635_" fill="#FFFFFF" cx="83.2" cy="64.3" r="0.9"/>
			<circle id="XMLID_2634_" fill="#FFFFFF" cx="80.4" cy="60.6" r="0.9"/>
			<circle id="XMLID_2633_" fill="#FFFFFF" cx="80.4" cy="68" r="0.9"/>
			<circle id="XMLID_2632_" fill="#FFFFFF" cx="69.5" cy="68" r="0.9"/>
			<circle id="XMLID_2631_" fill="#FFFFFF" cx="29.3" cy="68" r="0.9"/>
			<circle id="XMLID_2630_" fill="#FFFFFF" cx="22.3" cy="71.6" r="0.9"/>
			<circle id="XMLID_2629_" fill="#FFFFFF" cx="27.2" cy="71.6" r="0.9"/>
			<circle id="XMLID_2628_" fill="#FFFFFF" cx="37" cy="71.6" r="0.9"/>
			<circle id="XMLID_2627_" fill="#FFFFFF" cx="46.7" cy="71.6" r="0.9"/>
			<circle id="XMLID_2626_" fill="#FFFFFF" cx="41.8" cy="71.6" r="0.9"/>
			<circle id="XMLID_2625_" fill="#FFFFFF" cx="51.6" cy="71.6" r="0.9"/>
			<circle id="XMLID_2624_" fill="#FFFFFF" cx="66.2" cy="71.6" r="0.9"/>
			<circle id="XMLID_2623_" fill="#FFFFFF" cx="17.4" cy="71.6" r="0.9"/>
			<circle id="XMLID_2622_" fill="#FFFFFF" cx="56.5" cy="71.6" r="0.9"/>
			<circle id="XMLID_2621_" fill="#FFFFFF" cx="61.3" cy="71.6" r="0.9"/>
			<circle id="XMLID_2620_" fill="#FFFFFF" cx="32.1" cy="71.6" r="0.9"/>
			<circle id="XMLID_2619_" fill="#FFFFFF" cx="19.6" cy="75.3" r="0.9"/>
			<circle id="XMLID_2618_" fill="#FFFFFF" cx="24.4" cy="75.3" r="0.9"/>
			<circle id="XMLID_2617_" fill="#FFFFFF" cx="34.2" cy="75.3" r="0.9"/>
			<circle id="XMLID_2616_" fill="#FFFFFF" cx="43.9" cy="75.3" r="0.9"/>
			<circle id="XMLID_2615_" fill="#FFFFFF" cx="39.1" cy="75.3" r="0.9"/>
			<circle id="XMLID_2614_" fill="#FFFFFF" cx="48.8" cy="75.3" r="0.9"/>
			<circle id="XMLID_2613_" fill="#FFFFFF" cx="63.4" cy="75.3" r="0.9"/>
			<circle id="XMLID_2612_" fill="#FFFFFF" cx="14.7" cy="75.3" r="0.9"/>
			<circle id="XMLID_2611_" fill="#FFFFFF" cx="53.7" cy="75.3" r="0.9"/>
			<circle id="XMLID_2610_" fill="#FFFFFF" cx="58.6" cy="75.3" r="0.9"/>
			<circle id="XMLID_2605_" fill="#FFFFFF" cx="77.1" cy="71.6" r="0.9"/>
			<circle id="XMLID_2604_" fill="#FFFFFF" cx="72.3" cy="71.6" r="0.9"/>
			<circle id="XMLID_2600_" fill="#FFFFFF" cx="74.4" cy="75.3" r="0.9"/>
			<circle id="XMLID_2372_" fill="#FFFFFF" cx="83.2" cy="71.6" r="0.9"/>
			<circle id="XMLID_2371_" fill="#FFFFFF" cx="80.4" cy="75.3" r="0.9"/>
			<circle id="XMLID_2370_" fill="#FFFFFF" cx="69.5" cy="75.3" r="0.9"/>
			<circle id="XMLID_2369_" fill="#FFFFFF" cx="29.3" cy="75.3" r="0.9"/>
			<circle id="XMLID_2368_" fill="#FFFFFF" cx="22.3" cy="78.9" r="0.9"/>
			<circle id="XMLID_2367_" fill="#FFFFFF" cx="27.2" cy="78.9" r="0.9"/>
			<circle id="XMLID_2366_" fill="#FFFFFF" cx="37" cy="78.9" r="0.9"/>
			<circle id="XMLID_2365_" fill="#FFFFFF" cx="46.7" cy="78.9" r="0.9"/>
			<circle id="XMLID_2364_" fill="#FFFFFF" cx="41.8" cy="78.9" r="0.9"/>
			<circle id="XMLID_2363_" fill="#FFFFFF" cx="51.6" cy="78.9" r="0.9"/>
			<circle id="XMLID_2362_" fill="#FFFFFF" cx="66.2" cy="78.9" r="0.9"/>
			<circle id="XMLID_2361_" fill="#FFFFFF" cx="17.4" cy="78.9" r="0.9"/>
			<circle id="XMLID_2360_" fill="#FFFFFF" cx="56.5" cy="78.9" r="0.9"/>
			<circle id="XMLID_2290_" fill="#FFFFFF" cx="61.3" cy="78.9" r="0.9"/>
			<circle id="XMLID_2289_" fill="#FFFFFF" cx="32.1" cy="78.9" r="0.9"/>
			<circle id="XMLID_2232_" fill="#FFFFFF" cx="19.6" cy="82.6" r="0.9"/>
			<circle id="XMLID_2182_" fill="#FFFFFF" cx="24.4" cy="82.6" r="0.9"/>
			<circle id="XMLID_2181_" fill="#FFFFFF" cx="34.2" cy="82.6" r="0.9"/>
			<circle id="XMLID_2143_" fill="#FFFFFF" cx="43.9" cy="82.6" r="0.9"/>
			<circle id="XMLID_2142_" fill="#FFFFFF" cx="39.1" cy="82.6" r="0.9"/>
			<circle id="XMLID_1930_" fill="#FFFFFF" cx="48.8" cy="82.6" r="0.9"/>
			<circle id="XMLID_1929_" fill="#FFFFFF" cx="63.4" cy="82.6" r="0.9"/>
			<circle id="XMLID_1928_" fill="#FFFFFF" cx="14.7" cy="82.6" r="0.9"/>
			<circle id="XMLID_1927_" fill="#FFFFFF" cx="53.7" cy="82.6" r="0.9"/>
			<circle id="XMLID_1926_" fill="#FFFFFF" cx="58.6" cy="82.6" r="0.9"/>
			<circle id="XMLID_1925_" fill="#FFFFFF" cx="77.1" cy="78.9" r="0.9"/>
			<circle id="XMLID_1924_" fill="#FFFFFF" cx="72.3" cy="78.9" r="0.9"/>
			<circle id="XMLID_1923_" fill="#FFFFFF" cx="74.4" cy="82.6" r="0.9"/>
			<circle id="XMLID_1922_" fill="#FFFFFF" cx="83.2" cy="78.9" r="0.9"/>
			<circle id="XMLID_1921_" fill="#FFFFFF" cx="22.3" cy="86.2" r="0.9"/>
			<circle id="XMLID_1732_" fill="#FFFFFF" cx="27.2" cy="86.2" r="0.9"/>
			<circle id="XMLID_1731_" fill="#FFFFFF" cx="37" cy="86.2" r="0.9"/>
			<circle id="XMLID_1496_" fill="#FFFFFF" cx="46.7" cy="86.2" r="0.9"/>
			<circle id="XMLID_1495_" fill="#FFFFFF" cx="41.8" cy="86.2" r="0.9"/>
			<circle id="XMLID_1489_" fill="#FFFFFF" cx="51.6" cy="86.2" r="0.9"/>
			<circle id="XMLID_1488_" fill="#FFFFFF" cx="66.2" cy="86.2" r="0.9"/>
			<circle id="XMLID_1487_" fill="#FFFFFF" cx="17.4" cy="86.2" r="0.9"/>
			<circle id="XMLID_1486_" fill="#FFFFFF" cx="56.5" cy="86.2" r="0.9"/>
			<circle id="XMLID_1485_" fill="#FFFFFF" cx="61.3" cy="86.2" r="0.9"/>
			<circle id="XMLID_1351_" fill="#FFFFFF" cx="32.1" cy="86.2" r="0.9"/>
			<circle id="XMLID_1350_" fill="#FFFFFF" cx="77.1" cy="86.2" r="0.9"/>
			<circle id="XMLID_1128_" fill="#FFFFFF" cx="72.3" cy="86.2" r="0.9"/>
			<circle id="XMLID_1127_" fill="#FFFFFF" cx="83.2" cy="86.2" r="0.9"/>
			<circle id="XMLID_1126_" fill="#FFFFFF" cx="80.4" cy="82.6" r="0.9"/>
			<circle id="XMLID_1125_" fill="#FFFFFF" cx="69.5" cy="82.6" r="0.9"/>
			<circle id="XMLID_1123_" fill="#FFFFFF" cx="29.3" cy="82.6" r="0.9"/>
			<circle id="XMLID_1120_" fill="#FFFFFF" cx="24.4" cy="90" r="0.9"/>
			<circle id="XMLID_1072_" fill="#FFFFFF" cx="34.2" cy="90" r="0.9"/>
			<circle id="XMLID_1071_" fill="#FFFFFF" cx="43.9" cy="90" r="0.9"/>
			<circle id="XMLID_1070_" fill="#FFFFFF" cx="39.1" cy="90" r="0.9"/>
			<circle id="XMLID_1069_" fill="#FFFFFF" cx="48.8" cy="90" r="0.9"/>
			<circle id="XMLID_1068_" fill="#FFFFFF" cx="63.4" cy="90" r="0.9"/>
			<circle id="XMLID_1063_" fill="#FFFFFF" cx="53.7" cy="90" r="0.9"/>
			<circle id="XMLID_1062_" fill="#FFFFFF" cx="58.6" cy="90" r="0.9"/>
			<circle id="XMLID_1061_" fill="#FFFFFF" cx="74.4" cy="90" r="0.9"/>
			<circle id="XMLID_1060_" fill="#FFFFFF" cx="80.4" cy="90" r="0.9"/>
			<circle id="XMLID_1059_" fill="#FFFFFF" cx="69.5" cy="90" r="0.9"/>
			<circle id="XMLID_1058_" fill="#FFFFFF" cx="29.3" cy="90" r="0.9"/>
			<circle id="XMLID_1057_" fill="#FFFFFF" cx="22.3" cy="93.6" r="0.9"/>
			<circle id="XMLID_1056_" fill="#FFFFFF" cx="27.2" cy="93.6" r="0.9"/>
			<circle id="XMLID_1032_" fill="#FFFFFF" cx="37" cy="93.6" r="0.9"/>
			<circle id="XMLID_1031_" fill="#FFFFFF" cx="46.7" cy="93.6" r="0.9"/>
			<circle id="XMLID_1030_" fill="#FFFFFF" cx="41.8" cy="93.6" r="0.9"/>
			<circle id="XMLID_1029_" fill="#FFFFFF" cx="51.6" cy="93.6" r="0.9"/>
			<circle id="XMLID_1028_" fill="#FFFFFF" cx="66.2" cy="93.6" r="0.9"/>
			<circle id="XMLID_1027_" fill="#FFFFFF" cx="56.5" cy="93.6" r="0.9"/>
			<circle id="XMLID_995_" fill="#FFFFFF" cx="61.3" cy="93.6" r="0.9"/>
			<circle id="XMLID_990_" fill="#FFFFFF" cx="32.1" cy="93.6" r="0.9"/>
			<circle id="XMLID_953_" fill="#FFFFFF" cx="24.4" cy="97.3" r="0.9"/>
			<circle id="XMLID_952_" fill="#FFFFFF" cx="34.2" cy="97.3" r="0.9"/>
			<circle id="XMLID_951_" fill="#FFFFFF" cx="43.9" cy="97.3" r="0.9"/>
			<circle id="XMLID_950_" fill="#FFFFFF" cx="39.1" cy="97.3" r="0.9"/>
			<circle id="XMLID_947_" fill="#FFFFFF" cx="48.8" cy="97.3" r="0.9"/>
			<circle id="XMLID_946_" fill="#FFFFFF" cx="63.4" cy="97.3" r="0.9"/>
			<circle id="XMLID_944_" fill="#FFFFFF" cx="53.7" cy="97.3" r="0.9"/>
			<circle id="XMLID_943_" fill="#FFFFFF" cx="58.6" cy="97.3" r="0.9"/>
			<circle id="XMLID_942_" fill="#FFFFFF" cx="77.1" cy="93.6" r="0.9"/>
			<circle id="XMLID_941_" fill="#FFFFFF" cx="72.3" cy="93.6" r="0.9"/>
			<circle id="XMLID_940_" fill="#FFFFFF" cx="74.4" cy="97.3" r="0.9"/>
			<circle id="XMLID_939_" fill="#FFFFFF" cx="83.2" cy="93.6" r="0.9"/>
			<circle id="XMLID_938_" fill="#FFFFFF" cx="80.4" cy="97.3" r="0.9"/>
			<circle id="XMLID_937_" fill="#FFFFFF" cx="69.5" cy="97.3" r="0.9"/>
			<circle id="XMLID_936_" fill="#FFFFFF" cx="29.3" cy="97.3" r="0.9"/>
			<circle id="XMLID_935_" fill="#FFFFFF" cx="22.3" cy="100.8" r="0.9"/>
			<circle id="XMLID_934_" fill="#FFFFFF" cx="27.2" cy="100.8" r="0.9"/>
			<circle id="XMLID_933_" fill="#FFFFFF" cx="37" cy="100.8" r="0.9"/>
			<circle id="XMLID_932_" fill="#FFFFFF" cx="46.7" cy="100.8" r="0.9"/>
			<circle id="XMLID_931_" fill="#FFFFFF" cx="41.8" cy="100.8" r="0.9"/>
			<circle id="XMLID_930_" fill="#FFFFFF" cx="51.6" cy="100.8" r="0.9"/>
			<circle id="XMLID_929_" fill="#FFFFFF" cx="66.2" cy="100.8" r="0.9"/>
			<circle id="XMLID_928_" fill="#FFFFFF" cx="56.5" cy="100.8" r="0.9"/>
			<circle id="XMLID_927_" fill="#FFFFFF" cx="61.3" cy="100.8" r="0.9"/>
			<circle id="XMLID_926_" fill="#FFFFFF" cx="32.1" cy="100.8" r="0.9"/>
			<circle id="XMLID_925_" fill="#FFFFFF" cx="24.4" cy="104.5" r="0.9"/>
			<circle id="XMLID_924_" fill="#FFFFFF" cx="34.2" cy="104.5" r="0.9"/>
			<circle id="XMLID_923_" fill="#FFFFFF" cx="43.9" cy="104.5" r="0.9"/>
			<circle id="XMLID_922_" fill="#FFFFFF" cx="39.1" cy="104.5" r="0.9"/>
			<circle id="XMLID_921_" fill="#FFFFFF" cx="48.8" cy="104.5" r="0.9"/>
			<circle id="XMLID_920_" fill="#FFFFFF" cx="63.4" cy="104.5" r="0.9"/>
			<circle id="XMLID_919_" fill="#FFFFFF" cx="53.7" cy="104.5" r="0.9"/>
			<circle id="XMLID_918_" fill="#FFFFFF" cx="58.6" cy="104.5" r="0.9"/>
			<circle id="XMLID_917_" fill="#FFFFFF" cx="77.1" cy="100.8" r="0.9"/>
			<circle id="XMLID_916_" fill="#FFFFFF" cx="72.3" cy="100.8" r="0.9"/>
			<circle id="XMLID_915_" fill="#FFFFFF" cx="74.4" cy="104.5" r="0.9"/>
			<circle id="XMLID_914_" fill="#FFFFFF" cx="83.2" cy="100.8" r="0.9"/>
			<circle id="XMLID_913_" fill="#FFFFFF" cx="22.3" cy="108.1" r="0.9"/>
			<circle id="XMLID_912_" fill="#FFFFFF" cx="27.2" cy="108.1" r="0.9"/>
			<circle id="XMLID_911_" fill="#FFFFFF" cx="37" cy="108.1" r="0.9"/>
			<circle id="XMLID_910_" fill="#FFFFFF" cx="46.7" cy="108.1" r="0.9"/>
			<circle id="XMLID_909_" fill="#FFFFFF" cx="41.8" cy="108.1" r="0.9"/>
			<circle id="XMLID_908_" fill="#FFFFFF" cx="51.6" cy="108.1" r="0.9"/>
			<circle id="XMLID_907_" fill="#FFFFFF" cx="66.2" cy="108.1" r="0.9"/>
			<circle id="XMLID_906_" fill="#FFFFFF" cx="56.5" cy="108.1" r="0.9"/>
			<circle id="XMLID_905_" fill="#FFFFFF" cx="61.3" cy="108.1" r="0.9"/>
			<circle id="XMLID_904_" fill="#FFFFFF" cx="32.1" cy="108.1" r="0.9"/>
			<circle id="XMLID_903_" fill="#FFFFFF" cx="77.1" cy="108.1" r="0.9"/>
			<circle id="XMLID_902_" fill="#FFFFFF" cx="72.3" cy="108.1" r="0.9"/>
			<circle id="XMLID_901_" fill="#FFFFFF" cx="83.2" cy="108.1" r="0.9"/>
			<circle id="XMLID_900_" fill="#FFFFFF" cx="80.4" cy="104.5" r="0.9"/>
			<circle id="XMLID_899_" fill="#FFFFFF" cx="69.5" cy="104.5" r="0.9"/>
			<circle id="XMLID_898_" fill="#FFFFFF" cx="89.4" cy="34.8" r="0.9"/>
			<circle id="XMLID_897_" fill="#FFFFFF" cx="86.6" cy="31.1" r="0.9"/>
			<circle id="XMLID_896_" fill="#FFFFFF" cx="89.4" cy="27.4" r="0.9"/>
			<circle id="XMLID_895_" fill="#FFFFFF" cx="89.4" cy="42.2" r="0.9"/>
			<circle id="XMLID_894_" fill="#FFFFFF" cx="86.6" cy="38.5" r="0.9"/>
			<circle id="XMLID_893_" fill="#FFFFFF" cx="89.4" cy="49.5" r="0.9"/>
			<circle id="XMLID_892_" fill="#FFFFFF" cx="86.6" cy="45.9" r="0.9"/>
			<circle id="XMLID_891_" fill="#FFFFFF" cx="89.4" cy="56.9" r="0.9"/>
			<circle id="XMLID_890_" fill="#FFFFFF" cx="86.6" cy="53.2" r="0.9"/>
			<circle id="XMLID_889_" fill="#FFFFFF" cx="89.4" cy="64.3" r="0.9"/>
			<circle id="XMLID_888_" fill="#FFFFFF" cx="86.6" cy="60.6" r="0.9"/>
			<circle id="XMLID_808_" fill="#FFFFFF" cx="86.6" cy="68" r="0.9"/>
			<circle id="XMLID_807_" fill="#FFFFFF" cx="100.3" cy="34.8" r="0.9"/>
			<circle id="XMLID_805_" fill="#FFFFFF" cx="95.4" cy="34.8" r="0.9"/>
			<circle id="XMLID_804_" fill="#FFFFFF" cx="97.5" cy="31.1" r="0.9"/>
			<circle id="XMLID_802_" fill="#FFFFFF" cx="92.7" cy="31.1" r="0.9"/>
			<circle id="XMLID_801_" fill="#FFFFFF" cx="100.3" cy="27.4" r="0.9"/>
			<circle id="XMLID_800_" fill="#FFFFFF" cx="95.4" cy="27.4" r="0.9"/>
			<circle id="XMLID_799_" fill="#FFFFFF" cx="100.3" cy="42.2" r="0.9"/>
			<circle id="XMLID_798_" fill="#FFFFFF" cx="95.4" cy="42.2" r="0.9"/>
			<circle id="XMLID_797_" fill="#FFFFFF" cx="97.5" cy="38.5" r="0.9"/>
			<circle id="XMLID_794_" fill="#FFFFFF" cx="92.7" cy="38.5" r="0.9"/>
			<circle id="XMLID_793_" fill="#FFFFFF" cx="100.3" cy="49.5" r="0.9"/>
			<circle id="XMLID_792_" fill="#FFFFFF" cx="95.4" cy="49.5" r="0.9"/>
			<circle id="XMLID_791_" fill="#FFFFFF" cx="97.5" cy="45.9" r="0.9"/>
			<circle id="XMLID_775_" fill="#FFFFFF" cx="92.7" cy="45.9" r="0.9"/>
			<circle id="XMLID_774_" fill="#FFFFFF" cx="100.3" cy="56.9" r="0.9"/>
			<circle id="XMLID_770_" fill="#FFFFFF" cx="95.4" cy="56.9" r="0.9"/>
			<circle id="XMLID_764_" fill="#FFFFFF" cx="97.5" cy="53.2" r="0.9"/>
			<circle id="XMLID_763_" fill="#FFFFFF" cx="92.7" cy="53.2" r="0.9"/>
			<circle id="XMLID_762_" fill="#FFFFFF" cx="100.3" cy="64.3" r="0.9"/>
			<circle id="XMLID_761_" fill="#FFFFFF" cx="95.4" cy="64.3" r="0.9"/>
			<circle id="XMLID_760_" fill="#FFFFFF" cx="97.5" cy="60.6" r="0.9"/>
			<circle id="XMLID_759_" fill="#FFFFFF" cx="92.7" cy="60.6" r="0.9"/>
			<circle id="XMLID_758_" fill="#FFFFFF" cx="97.5" cy="68" r="0.9"/>
			<circle id="XMLID_757_" fill="#FFFFFF" cx="106.4" cy="34.8" r="0.9"/>
			<circle id="XMLID_756_" fill="#FFFFFF" cx="103.6" cy="31.1" r="0.9"/>
			<circle id="XMLID_755_" fill="#FFFFFF" cx="106.4" cy="27.4" r="0.9"/>
			<circle id="XMLID_754_" fill="#FFFFFF" cx="106.4" cy="42.2" r="0.9"/>
			<circle id="XMLID_753_" fill="#FFFFFF" cx="103.6" cy="38.5" r="0.9"/>
			<circle id="XMLID_752_" fill="#FFFFFF" cx="106.4" cy="49.5" r="0.9"/>
			<circle id="XMLID_751_" fill="#FFFFFF" cx="103.6" cy="45.9" r="0.9"/>
			<circle id="XMLID_750_" fill="#FFFFFF" cx="106.4" cy="56.9" r="0.9"/>
			<circle id="XMLID_749_" fill="#FFFFFF" cx="103.6" cy="53.2" r="0.9"/>
			<circle id="XMLID_748_" fill="#FFFFFF" cx="106.4" cy="64.3" r="0.9"/>
			<circle id="XMLID_747_" fill="#FFFFFF" cx="103.6" cy="60.6" r="0.9"/>
			<circle id="XMLID_746_" fill="#FFFFFF" cx="103.6" cy="68" r="0.9"/>
			<circle id="XMLID_745_" fill="#FFFFFF" cx="92.7" cy="68" r="0.9"/>
			<circle id="XMLID_743_" fill="#FFFFFF" cx="89.4" cy="71.6" r="0.9"/>
			<circle id="XMLID_742_" fill="#FFFFFF" cx="86.6" cy="75.3" r="0.9"/>
			<circle id="XMLID_741_" fill="#FFFFFF" cx="100.3" cy="71.6" r="0.9"/>
			<circle id="XMLID_740_" fill="#FFFFFF" cx="95.4" cy="71.6" r="0.9"/>
			<circle id="XMLID_739_" fill="#FFFFFF" cx="97.5" cy="75.3" r="0.9"/>
			<circle id="XMLID_737_" fill="#FFFFFF" cx="106.4" cy="71.6" r="0.9"/>
			<circle id="XMLID_734_" fill="#FFFFFF" cx="103.6" cy="75.3" r="0.9"/>
			<circle id="XMLID_733_" fill="#FFFFFF" cx="92.7" cy="75.3" r="0.9"/>
			<circle id="XMLID_732_" fill="#FFFFFF" cx="89.4" cy="78.9" r="0.9"/>
			<circle id="XMLID_730_" fill="#FFFFFF" cx="86.6" cy="82.6" r="0.9"/>
			<circle id="XMLID_729_" fill="#FFFFFF" cx="100.3" cy="78.9" r="0.9"/>
			<circle id="XMLID_728_" fill="#FFFFFF" cx="95.4" cy="78.9" r="0.9"/>
			<circle id="XMLID_727_" fill="#FFFFFF" cx="97.5" cy="82.6" r="0.9"/>
			<circle id="XMLID_726_" fill="#FFFFFF" cx="106.4" cy="78.9" r="0.9"/>
			<circle id="XMLID_725_" fill="#FFFFFF" cx="89.4" cy="86.2" r="0.9"/>
			<circle id="XMLID_724_" fill="#FFFFFF" cx="100.3" cy="86.2" r="0.9"/>
			<circle id="XMLID_723_" fill="#FFFFFF" cx="95.4" cy="86.2" r="0.9"/>
			<circle id="XMLID_722_" fill="#FFFFFF" cx="106.4" cy="86.2" r="0.9"/>
			<circle id="XMLID_721_" fill="#FFFFFF" cx="103.6" cy="82.6" r="0.9"/>
			<circle id="XMLID_719_" fill="#FFFFFF" cx="92.7" cy="82.6" r="0.9"/>
			<circle id="XMLID_718_" fill="#FFFFFF" cx="86.6" cy="90" r="0.9"/>
			<circle id="XMLID_717_" fill="#FFFFFF" cx="97.5" cy="90" r="0.9"/>
			<circle id="XMLID_716_" fill="#FFFFFF" cx="103.6" cy="90" r="0.9"/>
			<circle id="XMLID_715_" fill="#FFFFFF" cx="92.7" cy="90" r="0.9"/>
			<circle id="XMLID_714_" fill="#FFFFFF" cx="89.4" cy="93.6" r="0.9"/>
			<circle id="XMLID_713_" fill="#FFFFFF" cx="86.6" cy="97.3" r="0.9"/>
			<circle id="XMLID_712_" fill="#FFFFFF" cx="100.3" cy="93.6" r="0.9"/>
			<circle id="XMLID_711_" fill="#FFFFFF" cx="95.4" cy="93.6" r="0.9"/>
			<circle id="XMLID_710_" fill="#FFFFFF" cx="97.5" cy="97.3" r="0.9"/>
			<circle id="XMLID_709_" fill="#FFFFFF" cx="106.4" cy="93.6" r="0.9"/>
			<circle id="XMLID_707_" fill="#FFFFFF" cx="103.6" cy="97.3" r="0.9"/>
			<circle id="XMLID_706_" fill="#FFFFFF" cx="92.7" cy="97.3" r="0.9"/>
			<circle id="XMLID_705_" fill="#FFFFFF" cx="89.4" cy="100.8" r="0.9"/>
			<circle id="XMLID_704_" fill="#FFFFFF" cx="86.6" cy="104.5" r="0.9"/>
			<circle id="XMLID_702_" fill="#FFFFFF" cx="100.3" cy="100.8" r="0.9"/>
			<circle id="XMLID_701_" fill="#FFFFFF" cx="95.4" cy="100.8" r="0.9"/>
			<circle id="XMLID_460_" fill="#FFFFFF" cx="97.5" cy="104.5" r="0.9"/>
			<circle id="XMLID_459_" fill="#FFFFFF" cx="106.4" cy="100.8" r="0.9"/>
			<circle id="XMLID_458_" fill="#FFFFFF" cx="89.4" cy="108.1" r="0.9"/>
			<circle id="XMLID_457_" fill="#FFFFFF" cx="100.3" cy="108.1" r="0.9"/>
			<circle id="XMLID_456_" fill="#FFFFFF" cx="95.4" cy="108.1" r="0.9"/>
			<circle id="XMLID_455_" fill="#FFFFFF" cx="106.4" cy="108.1" r="0.9"/>
			<circle id="XMLID_454_" fill="#FFFFFF" cx="103.6" cy="104.5" r="0.9"/>
			<circle id="XMLID_453_" fill="#FFFFFF" cx="92.7" cy="104.5" r="0.9"/>
			<circle id="XMLID_452_" fill="#FFFFFF" cx="29.3" cy="104.5" r="0.9"/>
		</g>
	</mask>
	<polygon id="XMLID_1592_" mask="url(#XMLID_76_)" fill="#EC875C" points="29.3,94.9 43.8,69.7 59.1,82.1 74.4,49.8 87.5,61.9 
		101.6,30.9 101.4,94.9 	"/>
	
		<polyline id="XMLID_1591_" fill="none" stroke="#454B50" stroke-width="4.2136" stroke-linecap="round" stroke-linejoin="round" stroke-miterlimit="10" points="
		23,24.2 23,94.9 93.7,94.9 	"/>
	
		<polyline id="XMLID_771_" fill="none" stroke="#454B50" stroke-width="4.2136" stroke-linecap="round" stroke-linejoin="round" stroke-miterlimit="10" points="
		30.1,83.3 36.6,71.4 50.9,82.9 65.2,52.6 79.5,64.2 99.6,21.2 	"/>
	<rect id="_x3C_Slice_x3E__8_" x="1.1" y="-1.9" fill="none" width="119.9" height="119.9"/>
</g>
</svg>
