<?xml version="1.0" encoding="iso-8859-1"?>
<!-- Generator: Adobe Illustrator 19.1.0, SVG Export Plug-In . SVG Version: 6.00 Build 0)  -->
<!DOCTYPE svg PUBLIC "-//W3C//DTD SVG 1.1 Tiny//EN" "http://www.w3.org/Graphics/SVG/1.1/DTD/svg11-tiny.dtd">
<svg version="1.1" baseProfile="tiny" id="Layer_1" xmlns="http://www.w3.org/2000/svg" xmlns:xlink="http://www.w3.org/1999/xlink"
	 x="0px" y="0px" viewBox="-659 391 120 120" xml:space="preserve">
<image width="103" height="105" xlink:href="786B53A9C410B7C1.png"  transform="matrix(1 0 0 1 -649 403)">
</image>
<path id="XMLID_196_" fill="none" stroke="#454B50" stroke-width="3.6858" stroke-linecap="round" stroke-linejoin="round" stroke-miterlimit="10" d="
	M-605.3,456.6l-5.5-11.4c0-4.4-8.5-6.2-11-7c0,0,1-6.1,8-6.6s8.4-0.6,8.4-0.6l13.1-9.1c0,0,4.6-4.2,9.3-3.7c4.6,0.5,8.7-1,8.7-1
	l18.7-13.2c0,0,7.6,2.4,0.1,12.7c-5.9,5.7-6.1,8.5-6.1,8.5l1.1,1.3l9.5-6.7l3.9-5c0,0,5.1,4.8-5.4,13.1c-1.8,1.4-4.6,3.4-6.1,5.1
	c-3,3.4-4.6,10.3-6.4,14.5c-1.9,4.2-3.2,8.6-2.8,13.2c0.3,4.1,1.8,6.7-1.1,10.6c-3.1,3.9-6.9,11-6.9,11l-8.8,24.2l-4.1-7.4l-9.1,6.8
	l-4.2-11.4l-12.8,6.3v-11.6l-14.5,2.5l2.3-9.2h-11.3l9.7-9.7l5-10.4l6.6-11.7"/>
</svg>
